<?xml version="1.0" encoding="UTF-8"?>
<svg xmlns="http://www.w3.org/2000/svg" xmlns:xlink="http://www.w3.org/1999/xlink" width="50pt" height="50pt" viewBox="0 0 50 50" version="1.1">
<g id="surface1">
<path style=" stroke:none;fill-rule:evenodd;fill:rgb(0%,0%,0%);fill-opacity:1;" d="M 35.300781 18.75 C 35.773438 22.121094 34.871094 26.484375 31.898438 31.789062 C 29.332031 36.363281 34.894531 38.019531 40.582031 39.261719 C 45.683594 40.371094 45.859375 42.769531 45.839844 46.972656 L 45.832031 50 L 4.167969 50 L 4.160156 46.921875 C 4.140625 42.753906 4.332031 40.367188 9.414062 39.261719 C 14.984375 38.046875 20.855469 36.390625 18.210938 31.789062 C 15.195312 26.527344 14.261719 22.148438 14.738281 18.75 Z M 35.417969 16.667969 L 14.582031 16.667969 L 14.582031 8.308594 C 14.582031 7.421875 14.550781 6.445312 13.691406 6.050781 C 12.984375 5.722656 12.5 4.996094 12.5 4.167969 C 12.5 3.015625 13.433594 2.082031 14.582031 2.082031 C 16.144531 2.082031 17.355469 3.835938 16.246094 5.410156 C 15.691406 6.199219 15.824219 6.675781 16.199219 7.230469 C 16.996094 8.40625 18.148438 9.375 19.792969 9.375 C 22.417969 9.375 23.804688 7.203125 24.09375 5.367188 C 24.195312 4.726562 24.25 4.246094 23.640625 3.652344 C 23.222656 3.246094 22.917969 2.710938 22.917969 2.082031 C 22.917969 0.933594 23.851562 0 25 0 C 26.148438 0 27.082031 0.933594 27.082031 2.082031 C 27.082031 2.710938 26.777344 3.246094 26.359375 3.652344 C 25.746094 4.246094 25.804688 4.726562 25.902344 5.367188 C 26.195312 7.203125 27.582031 9.375 30.207031 9.375 C 31.847656 9.375 33.003906 8.40625 33.796875 7.230469 C 34.175781 6.675781 34.308594 6.199219 33.753906 5.410156 C 32.644531 3.835938 33.855469 2.082031 35.417969 2.082031 C 36.566406 2.082031 37.5 3.015625 37.5 4.167969 C 37.5 4.996094 37.015625 5.722656 36.308594 6.050781 C 35.449219 6.445312 35.417969 7.421875 35.417969 8.308594 Z M 35.417969 16.667969 "/>
</g>
</svg>
